# xmcd
#
# Track frame offsets:
#	150
#	19818
#	32188
#	62048
#	98933
#	146136
#	172186
#	205136
#	226808
#
# Disc length: 3559 seconds
#
# Revision: 8
# Processed by: cddbd v1.5.2PL0 Copyright (c) Steve Scherf et al.
# Submitted via: audiograbber 1.83.01
#
DISCID=7e0de509
DTITLE=Toto - Live In Poland - 35th Anniversary Tour [CD 2)
DYEAR=2014
DGENRE=Rock
TTITLE0=99
TTITLE1=The Muse
TTITLE2=White Sister
TTITLE3=Better World
TTITLE4=Africa
TTITLE5=How Many Times
TTITLE6=Stop Loving You
TTITLE7=Hold The Line
TTITLE8=Home Of The Brave [Encore]
EXTD=
EXTT0=
EXTT1=
EXTT2=
EXTT3=
EXTT4=
EXTT5=
EXTT6=
EXTT7=
EXTT8=
PLAYORDER=
